<svg xmlns="http://www.w3.org/2000/svg" width="160" height="44" viewBox="0 0 160 44" fill="none">
<g clip-path="url(#clip0_2_23)">
<g clip-path="url(#clip1_2_23)">
<path d="M51.0821 8.70567C53.3791 8.70567 55.2164 9.46902 56.7476 11.0467L56.8497 11.1484L58.8913 9.16369L58.8403 9.0619C57.0026 7.02624 54.1956 5.90663 50.9803 5.90663C44.6515 5.90663 40.0068 10.2833 40.0068 16.3393C40.0068 22.3954 44.6004 26.7721 50.9292 26.7721C54.1445 26.7721 56.9519 25.6525 58.8403 23.5659L58.8913 23.4641L56.8497 21.4794L56.7476 21.5812C55.2164 23.1588 53.328 23.973 51.0821 23.973C46.4888 23.973 43.1714 20.7669 43.1714 16.3393C43.1714 11.9118 46.5399 8.70567 51.0821 8.70567ZM67.6189 24.1257C64.6076 24.1257 62.5149 21.9374 62.5149 18.8839C62.5149 15.7795 64.6076 13.6421 67.6189 13.6421C70.6302 13.6421 72.7226 15.7795 72.7226 18.8839C72.7226 21.9883 70.6302 24.1257 67.6189 24.1257ZM67.6189 10.9958C62.8721 10.9958 59.4525 14.3037 59.4525 18.8839C59.4525 23.4641 62.8721 26.7721 67.6189 26.7721C72.3654 26.7721 75.785 23.4641 75.785 18.8839C75.785 14.3037 72.3144 10.9958 67.6189 10.9958ZM84.9722 24.1257C81.9609 24.1257 79.8171 21.9374 79.8171 18.833C79.8171 15.7287 81.9098 13.5403 84.9722 13.5403C87.9833 13.5403 90.0759 15.7287 90.0759 18.833C90.0759 21.9374 87.9833 24.1257 84.9722 24.1257ZM90.0759 13.1332C88.8001 11.6573 86.9625 10.894 84.7679 10.894C80.0722 10.894 76.8058 14.151 76.8058 18.833C76.8058 23.515 80.0722 26.7721 84.7679 26.7721C87.0135 26.7721 88.953 25.9069 90.1781 24.3802V26.5685H93.0873V4.88882H90.0249L90.0759 13.1332ZM102.887 13.5403C105.388 13.5403 107.276 15.2197 107.633 17.6625H98.1913C98.4974 15.2197 100.335 13.5403 102.887 13.5403ZM102.887 10.9958C98.3952 10.9958 95.1799 14.3037 95.1799 18.8839C95.1799 23.515 98.5485 26.7721 103.448 26.7721C106 26.7721 108.093 25.9069 109.522 24.2784L109.573 24.2275L107.889 22.2936L107.786 22.3954C106.715 23.5659 105.286 24.1766 103.499 24.1766C100.641 24.1766 98.5485 22.5481 98.1402 19.9526H110.39V19.8509C110.441 19.5964 110.441 19.2401 110.441 18.9857C110.492 14.2528 107.327 10.9958 102.887 10.9958ZM124.425 21.9883C123.506 23.3623 122.077 24.1257 120.291 24.1257C117.178 24.1257 115.085 21.9883 115.085 18.8839C115.085 15.7795 117.229 13.6421 120.291 13.6421C122.077 13.6421 123.506 14.3546 124.425 15.7795L124.476 15.8813L126.824 14.4055L126.773 14.3037C125.548 12.2172 123.2 10.9958 120.342 10.9958C115.544 10.9958 112.023 14.3037 112.023 18.8839C112.023 23.4641 115.544 26.7721 120.342 26.7721C123.2 26.7721 125.548 25.5507 126.773 23.4132L126.824 23.3114L124.476 21.8865L124.425 21.9883ZM136.011 24.1257C133 24.1257 130.907 21.9374 130.907 18.8839C130.907 15.7795 133 13.6421 136.011 13.6421C139.022 13.6421 141.115 15.7795 141.115 18.8839C141.115 21.9883 139.022 24.1257 136.011 24.1257ZM136.011 10.9958C131.264 10.9958 127.845 14.3037 127.845 18.8839C127.845 23.4641 131.264 26.7721 136.011 26.7721C140.758 26.7721 144.177 23.4641 144.177 18.8839C144.177 14.3037 140.707 10.9958 136.011 10.9958ZM157.039 10.9958L151.833 22.9043L146.729 10.9958H143.616L150.302 26.2123L150.353 26.2631H153.313L159.999 10.9958H157.039ZM16.2354 0.910034C7.28788 0.910034 0 8.1049 0 16.8826V16.9546L2.74197 18.5374H2.81413C4.5459 17.3863 6.63848 16.9546 8.73103 17.3143C10.1742 17.6021 11.5451 18.2496 12.6275 19.2569L13.1326 19.6886L13.4213 19.113C13.7099 18.5374 13.9985 18.0338 14.2871 17.5302C14.4314 17.3143 14.5758 17.1704 14.7201 16.9546L15.0087 16.5948L14.6479 16.307C13.1326 15.0839 11.3287 14.2205 9.38043 13.8608C7.50436 13.501 5.62825 13.573 3.8965 14.1486C5.19533 8.46464 10.2463 4.4355 16.2354 4.4355C19.6268 4.4355 22.8017 5.73059 25.1829 8.1049C26.9147 9.75972 28.0692 11.8462 28.5743 14.1486C27.4919 13.7888 26.3374 13.6449 25.1829 13.6449H24.9664C24.5335 13.6449 24.1005 13.7169 23.5954 13.7169H23.5233C23.379 13.7169 23.1625 13.7888 23.0182 13.7888C22.7295 13.8608 22.513 13.8608 22.2244 13.9327L22.008 14.0047C21.7915 14.0766 21.575 14.1486 21.3585 14.2205H21.2864C20.7813 14.3644 20.3483 14.5803 19.8433 14.7961C19.6268 14.8681 19.4103 15.012 19.1938 15.1559H19.1217C18.0393 15.8034 17.0291 16.5948 16.2354 17.6021L16.1632 17.746C15.9468 18.0338 15.8024 18.2496 15.6581 18.3935C15.5138 18.5374 15.4416 18.7533 15.2973 18.9691L15.2252 19.113C15.0809 19.3289 15.0087 19.5447 14.9366 19.6886V19.7606C14.7201 20.1922 14.5036 20.6959 14.3593 21.1995V21.2715C13.9985 22.4227 13.782 23.6458 13.782 24.9408V25.0848C13.782 25.2286 13.782 25.4445 13.782 25.5884C13.782 25.6603 13.782 25.7323 13.782 25.8042C13.782 25.8762 13.782 26.0201 13.782 26.092V26.164V26.3079C13.782 26.4518 13.8542 26.6676 13.8542 26.8115C14.215 28.5383 15.0087 30.193 16.2354 31.7041L16.3075 31.776L16.3797 31.7041C16.8848 31.1286 18.0393 29.3297 18.1836 28.2505C17.6064 27.1713 17.3177 25.9481 17.3177 24.797C17.3177 20.7678 20.4927 17.3863 24.6056 17.1704H24.8942C26.5539 17.0985 28.2135 17.6021 29.5845 18.5374H29.6566L32.3986 16.9546V16.8826C32.3986 12.6377 30.7391 8.60852 27.6362 5.58671C24.6056 2.56486 20.5648 0.910034 16.2354 0.910034Z" fill="#FFF"/>
</g>
</g>
<defs>
<clipPath id="clip0_2_23">
<rect width="160" height="44" fill="white"/>
</clipPath>
<clipPath id="clip1_2_23">
<rect width="160" height="44" fill="white"/>
</clipPath>
</defs>
</svg>